<svg width="24" height="25" viewBox="0 0 24 25" fill="none" xmlns="http://www.w3.org/2000/svg">
<path d="M12 14.5C14.7614 14.5 17 11.8137 17 8.5C17 5.18629 14.7614 2.5 12 2.5C9.23858 2.5 7 5.18629 7 8.5C7 11.8137 9.23858 14.5 12 14.5Z" fill="#6A6B6C"/>
<path d="M21.8 19.6C20.9 17.8 19.2 16.3 17 15.4C16.4 15.2 15.7 15.2 15.2 15.5C14.2 16.1 13.2 16.4 12 16.4C10.8 16.4 9.79997 16.1 8.79997 15.5C8.29997 15.3 7.59997 15.2 6.99997 15.5C4.79997 16.4 3.09997 17.9 2.19997 19.7C1.49997 21 2.59997 22.5 4.09997 22.5H19.9C21.4 22.5 22.5 21 21.8 19.6Z" fill="#6A6B6C"/>
</svg>
