<svg width="114" height="24" viewBox="0 0 114 24" fill="none" xmlns="http://www.w3.org/2000/svg">
<path d="M8.52148 0.420898C9.77474 0.420898 11.1012 0.465658 12.501 0.555176C13.9089 0.644694 15.3737 0.819661 16.8955 1.08008V4.18066C16.2119 3.98535 15.5202 3.82666 14.8203 3.70459C14.1204 3.57438 13.4165 3.47266 12.7085 3.39941C12.0086 3.32617 11.3088 3.27327 10.6089 3.24072C9.90902 3.20817 9.21322 3.18783 8.52148 3.17969C8.18783 3.17969 7.81755 3.18783 7.41064 3.2041C7.01188 3.21224 6.58464 3.22852 6.12891 3.25293C5.68132 3.27734 5.20931 3.31396 4.71289 3.36279C4.21647 3.41162 3.71191 3.47266 3.19922 3.5459V7.98926H13.8682V10.9922H3.19922V15.8994C3.98861 16.0133 4.81055 16.0988 5.66504 16.1558C6.51953 16.2127 7.47168 16.2412 8.52148 16.2412C9.9375 16.2412 11.3454 16.172 12.7451 16.0337C14.1449 15.8953 15.5283 15.6309 16.8955 15.2402V18.3408C15.3737 18.6012 13.9129 18.7762 12.5132 18.8657C11.1134 18.9552 9.79915 19 8.57031 19C7.31706 19 5.98649 18.9552 4.57861 18.8657C3.17887 18.7762 1.70996 18.6012 0.171875 18.3408V1.08008C1.70996 0.819661 3.17887 0.644694 4.57861 0.555176C5.97835 0.465658 7.29264 0.420898 8.52148 0.420898ZM27.9795 5.08398C28.6956 5.08398 29.4443 5.16536 30.2256 5.32812C31.015 5.49089 31.7799 5.70247 32.5205 5.96289V0.420898H35.7188V18.0479C35.2874 18.1781 34.7707 18.3001 34.1685 18.4141C33.5744 18.528 32.9355 18.6297 32.252 18.7192C31.5684 18.8006 30.8563 18.8698 30.1157 18.9268C29.3833 18.9756 28.6712 19 27.9795 19C26.7262 19 25.6073 18.9146 24.6226 18.7437C23.6379 18.5646 22.8037 18.292 22.1201 17.9258C21.4365 17.5596 20.9157 17.0957 20.5576 16.5342C20.1995 15.9727 20.0205 15.3053 20.0205 14.5322V9.55176C20.0205 8.77865 20.1995 8.11133 20.5576 7.5498C20.9157 6.98828 21.4365 6.52441 22.1201 6.1582C22.8037 5.79199 23.6379 5.52344 24.6226 5.35254C25.6073 5.1735 26.7262 5.08398 27.9795 5.08398ZM28.8584 16.7295C29.1839 16.7295 29.5135 16.7132 29.8472 16.6807C30.189 16.6481 30.5186 16.6034 30.8359 16.5464C31.1615 16.4894 31.4666 16.4243 31.7515 16.3511C32.0444 16.2778 32.3008 16.2005 32.5205 16.1191V8.45312C31.959 8.18457 31.3812 7.96484 30.7871 7.79395C30.2012 7.61491 29.5583 7.52539 28.8584 7.52539C28.3538 7.52539 27.8615 7.5376 27.3813 7.56201C26.9093 7.57829 26.4658 7.62305 26.0508 7.69629C25.6357 7.76139 25.2533 7.85905 24.9033 7.98926C24.5534 8.11133 24.2523 8.27816 24 8.48975C23.7559 8.70133 23.5646 8.96175 23.4263 9.271C23.2879 9.58024 23.2188 9.95052 23.2188 10.3818V13.9707C23.2188 14.6299 23.3693 15.1466 23.6704 15.521C23.9797 15.8872 24.3906 16.1598 24.9033 16.3389C25.416 16.5179 26.0142 16.6278 26.6978 16.6685C27.3813 16.7091 28.1016 16.7295 28.8584 16.7295ZM42.5303 14.5811C42.5303 14.9554 42.6646 15.2687 42.9331 15.521C43.2098 15.7733 43.576 15.9808 44.0317 16.1436C44.4956 16.2982 45.0286 16.4121 45.6309 16.4854C46.2331 16.5505 46.8597 16.583 47.5107 16.583C48.1943 16.583 48.8372 16.5464 49.4395 16.4731C50.0417 16.3918 50.5666 16.2738 51.0142 16.1191C51.4618 15.9564 51.8158 15.7489 52.0762 15.4966C52.3366 15.2443 52.4668 14.9391 52.4668 14.5811V5.08398L55.7139 5.32812V15.3623C55.7139 15.8018 55.604 16.2046 55.3843 16.5708C55.1727 16.937 54.8757 17.2666 54.4932 17.5596C54.1107 17.8444 53.659 18.0926 53.1382 18.3042C52.6174 18.5158 52.0518 18.6908 51.4414 18.8291C50.8392 18.9674 50.2004 19.0692 49.5249 19.1343C48.8576 19.2075 48.1862 19.2441 47.5107 19.2441C46.8271 19.2441 46.1517 19.2075 45.4844 19.1343C44.8171 19.0692 44.1782 18.9674 43.5679 18.8291C42.9657 18.6908 42.4041 18.5158 41.8833 18.3042C41.3625 18.0926 40.9108 17.8444 40.5283 17.5596C40.1458 17.2666 39.8447 16.9411 39.625 16.583C39.4134 16.2168 39.3076 15.8099 39.3076 15.3623V5.32812L42.5303 5.08398V14.5811Z" fill="#04016C"/>
<path d="M63.1602 19.8301C63.1602 20.1963 63.1195 20.5299 63.0381 20.8311C62.9567 21.1403 62.8468 21.417 62.7085 21.6611C62.5783 21.9134 62.4277 22.1372 62.2568 22.3325C62.0941 22.5278 61.9232 22.6987 61.7441 22.8452C61.3291 23.187 60.8571 23.4515 60.3281 23.6387L58.9609 21.2461C59.1481 21.1647 59.3149 21.0549 59.4614 20.9165C59.5916 20.8026 59.7137 20.652 59.8276 20.4648C59.9497 20.2858 60.027 20.0661 60.0596 19.8057V5.08398H63.1602V19.8301ZM61.6221 0.25C62.208 0.25 62.68 0.351725 63.0381 0.555176C63.3962 0.750488 63.5752 1.0638 63.5752 1.49512V2.10547C63.5752 2.49609 63.3962 2.77686 63.0381 2.94775C62.68 3.11865 62.208 3.2041 61.6221 3.2041C61.0361 3.2041 60.5682 3.11865 60.2183 2.94775C59.8683 2.77686 59.6934 2.49609 59.6934 2.10547V1.49512C59.6934 1.0638 59.8683 0.750488 60.2183 0.555176C60.5682 0.351725 61.0361 0.25 61.6221 0.25ZM81.4707 14.0195C81.2673 13.8405 81.015 13.6655 80.7139 13.4946C80.4128 13.3237 80.0425 13.1732 79.603 13.043C79.1636 12.9046 78.6387 12.7948 78.0283 12.7134C77.4261 12.6239 76.7181 12.5791 75.9043 12.5791C75.18 12.5791 74.4924 12.5954 73.8413 12.6279C73.1984 12.6523 72.6328 12.7337 72.1445 12.8721C71.6562 13.0023 71.2697 13.2139 70.9849 13.5068C70.7 13.7998 70.5576 14.2067 70.5576 14.7275V16.29C71.2738 16.404 72.0632 16.4976 72.9258 16.5708C73.7884 16.644 74.7487 16.6807 75.8066 16.6807C76.653 16.6807 77.5522 16.6522 78.5044 16.5952C79.4647 16.5301 80.4535 16.404 81.4707 16.2168V14.0195ZM75.9775 5.08398C76.3844 5.08398 76.8768 5.10433 77.4546 5.14502C78.0324 5.18571 78.6346 5.25895 79.2612 5.36475C79.8879 5.4624 80.5063 5.60075 81.1167 5.77979C81.7352 5.95068 82.2886 6.17855 82.7769 6.46338C83.2733 6.74007 83.672 7.07373 83.9731 7.46436C84.2743 7.85498 84.4248 8.31478 84.4248 8.84375V18.292C83.7412 18.4303 82.9681 18.5483 82.1055 18.646C81.3649 18.7355 80.4819 18.8169 79.4565 18.8901C78.4312 18.9634 77.2878 19 76.0264 19C74.7731 19 73.4385 18.9471 72.0225 18.8413C70.6146 18.7355 69.1416 18.5524 67.6035 18.292V13.8975C67.6035 13.4255 67.7134 13.0145 67.9331 12.6646C68.161 12.3065 68.4702 12.0013 68.8608 11.749C69.2515 11.4967 69.7113 11.2892 70.2402 11.1265C70.7692 10.9637 71.3389 10.8335 71.9492 10.7358C72.5596 10.6382 73.1943 10.5731 73.8535 10.5405C74.5127 10.4998 75.1719 10.4795 75.8311 10.4795C76.832 10.4795 77.6825 10.5446 78.3823 10.6748C79.0903 10.7969 79.6763 10.9312 80.1401 11.0776C80.6772 11.2567 81.1208 11.4561 81.4707 11.6758V9.69824C81.4707 9.36458 81.3893 9.07975 81.2266 8.84375C81.0638 8.59961 80.8441 8.39616 80.5674 8.2334C80.2907 8.0625 79.9733 7.92822 79.6152 7.83057C79.2572 7.72477 78.8828 7.64339 78.4922 7.58643C78.1016 7.52946 77.7028 7.49284 77.2959 7.47656C76.8971 7.46029 76.5228 7.45215 76.1729 7.45215C75.8066 7.45215 75.416 7.46436 75.001 7.48877C74.5859 7.50505 74.1709 7.54167 73.7559 7.59863C73.349 7.6556 72.9543 7.73698 72.5718 7.84277C72.1974 7.94043 71.8638 8.07471 71.5708 8.24561C71.2778 8.4165 71.0418 8.62402 70.8628 8.86816C70.6919 9.10417 70.6064 9.389 70.6064 9.72266L67.5791 8.94141C67.5791 8.39616 67.7134 7.92415 67.9819 7.52539C68.2505 7.11849 68.6045 6.77262 69.0439 6.48779C69.4915 6.20296 70.0042 5.97103 70.582 5.79199C71.1598 5.60482 71.758 5.4624 72.3765 5.36475C73.0031 5.25895 73.6257 5.18571 74.2441 5.14502C74.8626 5.10433 75.4404 5.08398 75.9775 5.08398ZM99.0977 5.08398C99.0977 5.93034 99.0692 6.81331 99.0122 7.73291C98.9552 8.64437 98.8454 9.58431 98.6826 10.5527H95.7285C95.8018 10.276 95.8709 9.97493 95.936 9.64941C95.9849 9.37272 96.0296 9.05127 96.0703 8.68506C96.1191 8.31071 96.1436 7.91602 96.1436 7.50098C95.4274 7.51725 94.8333 7.58643 94.3613 7.7085C93.8975 7.82243 93.5109 7.96077 93.2017 8.12354C92.8924 8.27816 92.6401 8.43685 92.4448 8.59961C92.2495 8.76237 92.0745 8.89258 91.9199 8.99023V19H88.7949V8.91699C88.7624 8.65658 88.6851 8.43685 88.563 8.25781C88.4491 8.07878 88.327 7.93229 88.1968 7.81836C88.0503 7.68001 87.8835 7.56608 87.6963 7.47656L88.9902 5.08398C89.2913 5.18978 89.5884 5.33219 89.8813 5.51123C90.1336 5.66585 90.3981 5.86523 90.6748 6.10938C90.9596 6.34538 91.2119 6.63835 91.4316 6.98828C91.8467 6.70345 92.2292 6.46338 92.5791 6.26807C92.929 6.06462 93.2668 5.89372 93.5923 5.75537C93.9259 5.61702 94.2677 5.51123 94.6177 5.43799C94.9757 5.35661 95.3664 5.2915 95.7896 5.24268C96.2209 5.19385 96.701 5.1613 97.23 5.14502C97.7671 5.12061 98.3896 5.10026 99.0977 5.08398ZM113.111 5.08398C113.111 5.93034 113.083 6.81331 113.026 7.73291C112.969 8.64437 112.859 9.58431 112.696 10.5527H109.742C109.815 10.276 109.885 9.97493 109.95 9.64941C109.999 9.37272 110.043 9.05127 110.084 8.68506C110.133 8.31071 110.157 7.91602 110.157 7.50098C109.441 7.51725 108.847 7.58643 108.375 7.7085C107.911 7.82243 107.525 7.96077 107.215 8.12354C106.906 8.27816 106.654 8.43685 106.458 8.59961C106.263 8.76237 106.088 8.89258 105.934 8.99023V19H102.809V8.91699C102.776 8.65658 102.699 8.43685 102.577 8.25781C102.463 8.07878 102.341 7.93229 102.21 7.81836C102.064 7.68001 101.897 7.56608 101.71 7.47656L103.004 5.08398C103.305 5.18978 103.602 5.33219 103.895 5.51123C104.147 5.66585 104.412 5.86523 104.688 6.10938C104.973 6.34538 105.226 6.63835 105.445 6.98828C105.86 6.70345 106.243 6.46338 106.593 6.26807C106.943 6.06462 107.28 5.89372 107.606 5.75537C107.94 5.61702 108.281 5.51123 108.631 5.43799C108.989 5.35661 109.38 5.2915 109.803 5.24268C110.235 5.19385 110.715 5.1613 111.244 5.14502C111.781 5.12061 112.403 5.10026 113.111 5.08398Z" fill="#2AAA94"/>
</svg>
