<svg width="17" height="17" viewBox="0 0 17 17" fill="none" xmlns="http://www.w3.org/2000/svg">
<path d="M8.5 0C6.81886 0 5.17547 0.498516 3.77766 1.43251C2.37984 2.3665 1.29037 3.69402 0.647028 5.24719C0.00368293 6.80036 -0.164645 8.50943 0.163329 10.1583C0.491303 11.8071 1.30085 13.3217 2.4896 14.5104C3.67834 15.6992 5.1929 16.5087 6.84174 16.8367C8.49057 17.1646 10.1996 16.9963 11.7528 16.353C13.306 15.7096 14.6335 14.6202 15.5675 13.2223C16.5015 11.8245 17 10.1811 17 8.5C16.9975 6.24641 16.1012 4.08584 14.5077 2.49231C12.9142 0.898785 10.7536 0.00246138 8.5 0ZM8.5 15.5833C7.09905 15.5833 5.72956 15.1679 4.56471 14.3896C3.39987 13.6112 2.49198 12.505 1.95586 11.2107C1.41974 9.91636 1.27946 8.49214 1.55277 7.11811C1.82609 5.74408 2.50071 4.48195 3.49133 3.49133C4.48195 2.5007 5.74408 1.82608 7.11811 1.55277C8.49214 1.27946 9.91637 1.41973 11.2107 1.95585C12.505 2.49197 13.6113 3.39986 14.3896 4.56471C15.1679 5.72956 15.5833 7.09905 15.5833 8.5C15.5812 10.378 14.8343 12.1784 13.5063 13.5063C12.1784 14.8343 10.378 15.5812 8.5 15.5833Z" fill="black"/>
<path d="M11.3157 7.57027L8.11601 5.33682C7.94607 5.21831 7.74691 5.14864 7.54016 5.13538C7.3334 5.12212 7.12697 5.16578 6.94329 5.26161C6.75961 5.35745 6.60571 5.50179 6.49831 5.67895C6.39091 5.85612 6.33412 6.05933 6.33411 6.26651V10.7334C6.33396 10.9407 6.39065 11.144 6.49802 11.3213C6.60539 11.4985 6.75931 11.6429 6.94305 11.7388C7.12679 11.8347 7.3333 11.8783 7.54011 11.8649C7.74693 11.8516 7.94611 11.7818 8.11601 11.6631L11.3157 9.42962V9.42906C11.4653 9.32462 11.5876 9.18558 11.672 9.02376C11.7564 8.86195 11.8004 8.68215 11.8004 8.49965C11.8004 8.31715 11.7564 8.13734 11.672 7.97553C11.5876 7.81372 11.4653 7.67471 11.3157 7.57027Z" fill="#29A354"/>
</svg>
