<svg width="138" height="24" viewBox="0 0 138 24" fill="none" xmlns="http://www.w3.org/2000/svg">
<g id="Group 119">
<path id="Star 7" d="M12 0L14.6942 8.2918H23.4127L16.3593 13.4164L19.0534 21.7082L12 16.5836L4.94658 21.7082L7.64074 13.4164L0.587322 8.2918H9.30583L12 0Z" fill="#F1C40F"/>
<path id="Star 8" d="M40.3633 0L43.0574 8.2918H51.776L44.7225 13.4164L47.4167 21.7082L40.3633 16.5836L33.3099 21.7082L36.004 13.4164L28.9506 8.2918H37.6691L40.3633 0Z" fill="#F1C40F"/>
<path id="Star 9" d="M68.7305 0L71.4246 8.2918H80.1431L73.0897 13.4164L75.7839 21.7082L68.7305 16.5836L61.677 21.7082L64.3712 13.4164L57.3178 8.2918H66.0363L68.7305 0Z" fill="#F1C40F"/>
<path id="Star 10" d="M97.0977 0L99.7918 8.2918H108.51L101.457 13.4164L104.151 21.7082L97.0977 16.5836L90.0442 21.7082L92.7384 13.4164L85.685 8.2918H94.4035L97.0977 0Z" fill="#F1C40F"/>
<path id="Star 11" d="M125.461 0L128.155 8.2918H136.874L129.82 13.4164L132.514 21.7082L125.461 16.5836L118.408 21.7082L121.102 13.4164L114.048 8.2918H122.767L125.461 0Z" fill="#F1C40F"/>
</g>
</svg>
