<svg width="28" height="18" viewBox="0 0 28 18" fill="none" xmlns="http://www.w3.org/2000/svg">
<path d="M19.9114 0.597324C19.8182 0.708955 19.7443 0.841766 19.6939 0.988096C19.6434 1.13443 19.6175 1.29138 19.6175 1.4499C19.6175 1.60842 19.6434 1.76537 19.6939 1.9117C19.7443 2.05803 19.8182 2.19085 19.9114 2.30248L24.4818 7.82621H1.09318C0.829667 7.82621 0.576949 7.95272 0.390619 8.17792C0.204288 8.40311 0.0996094 8.70854 0.0996094 9.02702C0.0996094 9.34549 0.204288 9.65092 0.390619 9.87612C0.576949 10.1013 0.829667 10.2278 1.09318 10.2278H24.4619L19.9114 15.7155C19.7263 15.9405 19.6224 16.2449 19.6224 16.5621C19.6224 16.8793 19.7263 17.1837 19.9114 17.4087C20.0975 17.6323 20.3493 17.7579 20.6118 17.7579C20.8743 17.7579 21.1261 17.6323 21.3123 17.4087L27.6314 9.77152C27.7164 9.6729 27.7841 9.55451 27.8303 9.42347C27.8766 9.29244 27.9004 9.15146 27.9004 9.00901C27.9004 8.86655 27.8766 8.72557 27.8303 8.59454C27.7841 8.4635 27.7164 8.34511 27.6314 8.24649L21.3222 0.597324C21.2299 0.484774 21.12 0.395441 20.9989 0.334477C20.8778 0.273514 20.7479 0.242126 20.6168 0.242126C20.4856 0.242126 20.3558 0.273514 20.2347 0.334477C20.1136 0.395441 20.0037 0.484774 19.9114 0.597324Z" fill="white"/>
</svg>
